<?xml version="1.0" standalone="no"?>
<!DOCTYPE svg PUBLIC "-//W3C//DTD SVG 20010904//EN"
 "http://www.w3.org/TR/2001/REC-SVG-20010904/DTD/svg10.dtd">
<svg version="1.0" xmlns="http://www.w3.org/2000/svg"
 width="512.000000pt" height="512.000000pt" viewBox="0 0 512.000000 512.000000"
 preserveAspectRatio="xMidYMid meet">

<g transform="translate(0.000000,512.000000) scale(0.100000,-0.100000)"
fill="#000000" stroke="none">
<path d="M2267 5095 c-412 -52 -783 -190 -1120 -415 -385 -259 -675 -591 -878
-1005 -118 -242 -194 -483 -236 -755 -25 -162 -25 -558 0 -720 84 -540 322
-1023 697 -1414 321 -335 771 -593 1233 -705 221 -54 327 -66 597 -66 270 0
376 12 597 66 439 107 845 331 1177 649 335 321 593 771 705 1233 54 221 66
327 66 597 0 270 -12 376 -66 597 -45 185 -102 341 -188 518 -253 517 -660
923 -1176 1176 -239 116 -483 193 -745 234 -144 23 -519 29 -663 10z m-384
-1349 c189 -46 354 -142 507 -295 52 -53 112 -122 133 -153 21 -31 41 -59 46
-62 4 -3 30 25 57 62 159 218 391 381 629 443 121 32 321 32 438 1 88 -24 224
-85 289 -130 63 -43 169 -152 213 -217 101 -153 140 -291 139 -490 -1 -121 -5
-152 -28 -228 -44 -147 -99 -240 -206 -348 -167 -168 -377 -253 -630 -253
-213 0 -401 63 -583 195 -76 55 -209 188 -262 263 -22 30 -45 56 -50 56 -6 0
-29 -24 -50 -52 -102 -136 -291 -293 -430 -358 -404 -187 -869 -103 -1126 203
-137 163 -197 351 -186 577 9 169 47 293 132 419 128 192 314 316 560 372 97
23 302 20 408 -5z m2306 -67 c-6 -12 -9 -30 -6 -40 3 -10 1 -22 -4 -25 -5 -3
-9 10 -9 28 0 19 -5 39 -12 46 -9 9 -6 12 15 12 25 0 27 -2 16 -21z m57 10 c4
-8 9 -7 15 2 14 23 31 -4 27 -42 -3 -30 -7 -34 -35 -37 -33 -3 -33 -3 -33 42
0 44 11 59 26 35z m-3050 -1921 c15 -46 51 -153 81 -237 29 -85 53 -161 53
-168 0 -11 -15 -13 -62 -11 l-63 3 -14 43 c-16 52 -43 66 -109 54 -45 -7 -46
-9 -57 -52 l-11 -45 -72 -3 c-40 -2 -72 -1 -72 2 0 4 145 430 161 474 8 20 15
22 73 22 l64 0 28 -82z m515 56 c51 -30 79 -78 79 -135 0 -62 -14 -98 -52
-131 l-31 -28 52 -84 c28 -46 51 -86 51 -90 0 -3 -31 -6 -70 -6 l-70 0 -21 42
c-43 84 -71 119 -93 116 -19 -3 -21 -11 -24 -80 l-3 -78 -59 0 -60 0 0 251 0
252 134 -5 c109 -4 139 -8 167 -24z m476 -10 c70 -44 98 -104 98 -214 0 -111
-27 -170 -100 -215 -46 -28 -55 -30 -171 -34 l-122 -3 -6 28 c-7 33 -5 455 2
468 3 5 60 6 128 4 115 -5 127 -7 171 -34z m313 -157 c6 -211 5 -209 80 -205
65 4 70 18 70 226 l0 172 60 0 60 0 0 -192 c-1 -218 -8 -246 -70 -283 -29 -16
-52 -20 -132 -20 -93 0 -98 1 -135 31 -24 19 -42 46 -50 70 -12 42 -18 376 -6
388 4 4 32 6 63 4 l55 -3 5 -188z m740 138 l0 -55 -60 0 -60 0 0 -140 0 -140
60 0 60 0 0 -55 0 -55 -182 2 -183 3 0 50 0 50 60 5 60 5 0 135 0 135 -62 3
-63 3 0 48 c0 26 3 51 7 54 3 4 87 7 185 7 l178 0 0 -55z m250 23 c11 -18 45
-81 77 -140 31 -60 60 -108 65 -108 4 0 9 62 10 138 l3 137 55 0 55 0 0 -245
0 -245 -66 -3 -66 -3 -68 123 c-37 68 -73 129 -79 137 -8 11 -12 -18 -16 -120
l-5 -134 -57 -3 -58 -3 0 251 0 250 65 0 c63 0 66 -1 85 -32z m648 8 c68 -35
95 -96 96 -216 2 -183 -62 -260 -214 -260 -136 1 -208 102 -198 275 8 127 56
197 145 216 49 10 137 2 171 -15z"/>
<path d="M1490 3446 c-87 -25 -194 -87 -245 -140 -135 -143 -186 -362 -129
-557 51 -173 191 -305 376 -355 118 -31 309 -10 434 47 169 78 341 241 442
418 l31 54 -21 41 c-89 179 -277 369 -438 443 -107 49 -142 57 -275 59 -85 2
-146 -1 -175 -10z m468 -528 l-3 -83 -262 -3 -263 -2 0 85 0 85 265 0 266 0
-3 -82z"/>
<path d="M3287 3439 c-171 -49 -327 -170 -441 -343 -77 -117 -99 -164 -91
-194 18 -72 162 -273 245 -342 55 -46 163 -112 219 -134 123 -48 280 -58 405
-26 248 63 406 263 406 513 0 152 -44 266 -146 376 -67 73 -136 115 -243 150
-87 28 -256 28 -354 0z m243 -334 l0 -84 88 -3 87 -3 0 -90 0 -90 -87 -3 -88
-3 0 -84 0 -85 -90 0 -90 0 0 85 0 84 -87 3 -88 3 0 90 0 90 88 3 87 3 0 84 0
85 90 0 90 0 0 -85z"/>
<path d="M1090 1656 c-5 -15 -13 -45 -16 -67 l-7 -39 37 0 c41 0 43 7 24 74
-16 56 -25 64 -38 32z"/>
<path d="M1534 1726 c-3 -7 -4 -38 -2 -67 l3 -54 37 -3 c70 -6 114 72 68 118
-24 24 -98 28 -106 6z"/>
<path d="M2010 1600 l0 -140 34 0 c52 0 98 37 114 93 27 96 -29 187 -114 187
l-34 0 0 -140z"/>
<path d="M3974 1714 c-25 -37 -31 -159 -11 -207 31 -73 110 -69 135 8 18 51
11 165 -12 200 -24 36 -88 36 -112 -1z"/>
</g>
</svg>
